# xmcd CD database file
# Copyright (C) 1993-1996 Ti Kan
#
# Track frame offsets:
#	152
#	11750
#	25450
#	35877
#	46000
#	56295
#	67515
#	79222
#	90220
#	102682
#	115307
#	124597
#	135570
#	146390
#	159107
#	169405
#	180027
#	193015
#	204072
#	215210
#
# Disc length: 3069 seconds
#
# Revision: 1
# Processed by: cddbd v1.4b41PL1 Copyright (c) Steve Scherf et al.
# Submitted via: EasyCD2 v3.00 - Copyright (c) 1997 Greg Leichner
#
DISCID=040bfb14
DTITLE=Patsy Cline - The Essential Patsy Cline
DYEAR=1900
DGENRE=
TTITLE0=Walkin' After Midnight
TTITLE1=A Church, a Courtroom, and then Goodbye
TTITLE2=Lovesick Blues
TTITLE3=Three Cigarettes in an Ashtray
TTITLE4=Walking Dream
TTITLE5=That Wonderful Someone
TTITLE6=Never No More
TTITLE7=Stop the World (And Let Me Off)
TTITLE8=Fingerprints
TTITLE9=Just a Closer Walk with You
TTITLE10=Love Me Honey
TTITLE11=I Can't Forget
TTITLE12=I Don't Wanta
TTITLE13=Yes I Understand
TTITLE14=How Can I Face Tomorrow
TTITLE15=Gotta Lot of Rhythm in My Soul
TTITLE16=Life's Railway to Heaven
TTITLE17=Hidin' Out
TTITLE18=Hungry for Love
TTITLE19=Then You'll Know
EXTD=
EXTT0=
EXTT1=
EXTT2=
EXTT3=
EXTT4=
EXTT5=
EXTT6=
EXTT7=
EXTT8=
EXTT9=
EXTT10=
EXTT11=
EXTT12=
EXTT13=
EXTT14=
EXTT15=
EXTT16=
EXTT17=
EXTT18=
EXTT19=
PLAYORDER=
